<?xml version="1.0" standalone="no"?>
<!DOCTYPE svg PUBLIC "-//W3C//DTD SVG 20010904//EN"
 "http://www.w3.org/TR/2001/REC-SVG-20010904/DTD/svg10.dtd">
<svg version="1.0" xmlns="http://www.w3.org/2000/svg"
 width="720.000000pt" height="720.000000pt" viewBox="0 0 720.000000 720.000000"
 preserveAspectRatio="xMidYMid meet">
<metadata>
Created by potrace 1.11, written by Peter Selinger 2001-2013
</metadata>
<g transform="translate(0.000000,720.000000) scale(0.100000,-0.100000)"
fill="#000000" stroke="none">
<path d="M3341 7190 c-924 -73 -1757 -473 -2380 -1144 -478 -515 -799 -1166
-910 -1846 -37 -228 -46 -341 -46 -605 0 -422 51 -741 180 -1130 355 -1075
1205 -1925 2280 -2280 389 -129 708 -180 1130 -180 264 0 377 9 605 46 591 97
1168 355 1645 737 422 337 778 785 1004 1264 447 947 465 2032 49 2987 -286
656 -781 1230 -1393 1613 -443 277 -969 461 -1495 523 -164 19 -514 27 -669
15z m529 -174 c564 -94 1026 -434 1278 -941 175 -353 220 -790 121 -1165 -178
-673 -719 -1159 -1414 -1271 -103 -17 -407 -17 -510 0 -394 63 -726 236 -995
518 -309 323 -470 725 -470 1173 0 473 186 908 528 1231 292 277 627 427 1057
473 71 7 318 -3 405 -18z"/>
</g>
</svg>
